#N canvas 244 199 1553 627 10;
#X msg 31 38 listen 0;
#X msg 18 5 listen 54321;
#X obj 18 64 netreceive -u -b 54321;
#X obj 18 87 oscparse;
#X text 103 4 MobMuPlat default Output port is 54321;
#X obj 18 109 list trim;
#X text 96 25 If you want to communicate via OSC with your computer
\, simply change the broadcast address to your computer's IP;
#X text 165 58 through this object we should see everything that has
been connected to [send toNetwork] inside the smartphone patch.;
#X obj 369 168 route shake tilts accel gyro motion accelFrequency gyroFrequency
motionFrequency location distanceFilter compass, f 124;
#X floatatom 1042 195 5 0 0 0 - - - 0;
#X text 1078 196 compass value \, in degrees;
#X floatatom 975 223 5 0 0 0 - - - 0;
#X text 1015 222 GPS location update filter \, in meters (default 1.0).
Val <= 0 sends all updates. Sent on request. Currently iOS only.,
f 53;
#X text 903 327 device location info. See MMPExamples-GPS.pd for full
explanation., f 67;
#X obj 907 273 unpack 0 0 0 0 0 0 0 0 0, f 54;
#X floatatom 907 303 5 0 0 0 - - - 0;
#X floatatom 947 303 5 0 0 0 - - - 0;
#X floatatom 987 303 5 0 0 0 - - - 0;
#X floatatom 1027 303 5 0 0 0 - - - 0;
#X floatatom 1067 303 5 0 0 0 - - - 0;
#X floatatom 1107 303 5 0 0 0 - - - 0;
#X floatatom 1147 303 5 0 0 0 - - - 0;
#X floatatom 1187 303 5 0 0 0 - - - 0;
#X floatatom 1228 303 5 0 0 0 - - - 0;
#X text 877 352 device motion frequency \, in hertz (default 10). Sent
on request. Currently iOS only.;
#X floatatom 840 357 5 0 0 0 - - - 0;
#X floatatom 773 387 5 0 0 0 - - - 0;
#X floatatom 705 416 5 0 0 0 - - - 0;
#X text 812 384 gyro data frequency \, in hertz (default 10). Sent
on request. Currently iOS only.;
#X text 743 415 accelerometer and tilt data frequency \, in hertz (default
10). Sent on request. Currently iOS only.;
#X obj 503 563 unpack f f f;
#X floatatom 572 585 5 0 0 0 - - - 0;
#X floatatom 537 585 5 0 0 0 - - - 0;
#X floatatom 503 585 5 0 0 0 - - - 0;
#X obj 638 454 unpack f f f;
#X floatatom 707 476 5 0 0 0 - - - 0;
#X floatatom 672 476 5 0 0 0 - - - 0;
#X floatatom 638 476 5 0 0 0 - - - 0;
#X obj 571 509 unpack f f f;
#X floatatom 640 531 5 0 0 0 - - - 0;
#X floatatom 605 531 5 0 0 0 - - - 0;
#X floatatom 571 531 5 0 0 0 - - - 0;
#X floatatom 493 636 5 0 0 0 - - - 0;
#X floatatom 436 636 5 0 0 0 - - - 0;
#X obj 436 614 unpack f f;
#X floatatom 369 671 5 0 0 0 - - - 0;
#X text 407 671 a shake gesture occured (value is always 1). Currently
iOS only., f 67;
#X text 533 635 "cooked" XY tilt values -1 to 1;
#X text 610 587 raw accelerometer data \, x \, y \, z \, range -1 to
1;
#X text 675 530 gyro data \, in radians per second \, around roll \,
pitch \, yaw \, range -pi to +pi, f 77;
#X text 744 477 device attitude in space \, at roll \, pitch \, yaw
\, range -pi to pi, f 63;
#X obj 18 191 unpack;
#X floatatom 51 210 5 0 0 0 - - - 0;
#X floatatom 18 210 5 0 0 0 - - - 0;
#X floatatom 33 168 5 0 0 0 - - - 0;
#X floatatom 70 168 5 0 0 0 - - - 0;
#X obj 18 133 route myXYSlider mySlider0 mySlider1 myToggle0 myToggle1
myToggle2 myToggle3 myButton0 myButton1 myButton2 myButton3;
#X floatatom 113 168 2 0 0 0 - - - 0;
#X floatatom 145 168 2 0 0 0 - - - 0;
#X floatatom 177 168 2 0 0 0 - - - 0;
#X floatatom 209 168 2 0 0 0 - - - 0;
#X floatatom 241 168 2 0 0 0 - - - 0;
#X floatatom 273 168 2 0 0 0 - - - 0;
#X floatatom 305 168 2 0 0 0 - - - 0;
#X floatatom 337 168 2 0 0 0 - - - 0;
#X text 32 736 angel.faraldo@upf.edu // 2022;
#N canvas 507 65 1842 1026 tilt 1;
#X obj 169 81 inlet;
#X obj 168 141 + 1;
#X obj 199 141 + 1;
#X obj 199 166 / 2;
#X floatatom 76 224 5 0 0 0 - - - 0;
#X floatatom 201 196 5 0 0 0 - - - 0;
#X obj 24 36 loadbang;
#X obj 23 80 soundfiler;
#N canvas 110 32 450 250 (subpatch) 0;
#X array /wav1 132300 float 2;
#X coords 0 1 132300 -1 138 143 1;
#X restore 358 225 graph;
#X floatatom 23 102 10 0 0 0 - - - 0;
#X obj 94 38 table /wav1;
#X obj 23 123 expr 44100/$f1;
#X obj 22 225 phasor~;
#X obj 22 309 *~;
#X obj 22 331 tabread4~ /wav1;
#X obj 22 403 dac~;
#X msg 24 57 read -resize helicopter-005.wav /wav1;
#X obj 168 167 / 2;
#X obj 42 281 * 441;
#X text 238 3 Huicheng Zhang u188840 Lab 03:;
#X obj 22 372 *~;
#X floatatom 41 253 5 0 0 0 - chunk - 0;
#X obj 378 88 bng 15 250 50 0 empty empty empty 17 7 0 10 #fcfcfc #000000
#000000;
#X obj 379 64 loadbang;
#X msg 379 105 \; chunk 200 \; pd dsp 1 \;;
#X obj 204 219 expr 1-$f1;
#X obj 48 196 * -1;
#X obj 137 232 sel 1 0, f 9;
#X obj 107 584 dac~;
#X obj 109 453 noise~;
#X obj 181 490 line~;
#X obj 108 553 *~;
#X floatatom 168 188 5 0 0 0 - - - 0;
#X obj 256 576 dac~;
#X obj 257 420 noise~;
#X obj 340 482 line~;
#X obj 257 545 *~;
#X obj 48 174 expr 1-0.5*$f1;
#X msg 180 459 2 \, 0 2000;
#X floatatom 111 425 5 0 0 0 - - - 0;
#X obj 90 297 * 0.8;
#X msg 339 451 3.5 \, 0 1000;
#X obj 258 472 bp~ 150;
#X obj 109 505 bp~ 250;
#X obj 109 357 expr 1-$f1;
#X obj 109 378 + 1;
#X obj 110 402 * 1.5;
#X obj 170 105 unpack 0 0;
#X connect 0 0 47 0;
#X connect 1 0 17 0;
#X connect 2 0 3 0;
#X connect 3 0 5 0;
#X connect 5 0 25 0;
#X connect 5 0 40 0;
#X connect 5 0 44 0;
#X connect 6 0 16 0;
#X connect 7 0 9 0;
#X connect 9 0 11 0;
#X connect 11 0 12 0;
#X connect 12 0 13 0;
#X connect 13 0 14 0;
#X connect 14 0 20 0;
#X connect 16 0 7 0;
#X connect 17 0 4 0;
#X connect 17 0 32 0;
#X connect 18 0 13 1;
#X connect 20 0 15 0;
#X connect 20 0 15 1;
#X connect 21 0 18 0;
#X connect 22 0 24 0;
#X connect 23 0 22 0;
#X connect 26 0 12 0;
#X connect 27 0 38 0;
#X connect 27 1 41 0;
#X connect 27 2 37 0;
#X connect 29 0 43 0;
#X connect 30 0 31 1;
#X connect 31 0 28 0;
#X connect 31 0 28 1;
#X connect 32 0 27 0;
#X connect 34 0 42 0;
#X connect 35 0 36 1;
#X connect 36 0 33 0;
#X connect 36 0 33 1;
#X connect 37 0 26 0;
#X connect 38 0 30 0;
#X connect 39 0 43 2;
#X connect 39 0 42 2;
#X connect 40 0 20 1;
#X connect 41 0 35 0;
#X connect 42 0 36 0;
#X connect 43 0 31 0;
#X connect 44 0 45 0;
#X connect 45 0 46 0;
#X connect 46 0 39 0;
#X connect 47 0 1 0;
#X connect 47 1 2 0;
#X restore 443 225 pd tilt;
#N canvas 944 212 783 599 shake_patch 0;
#N canvas 512 286 780 582 playsiren 0;
#X restore 160 -50 pd playsiren;
#X obj 71 43 inlet;
#X obj 70 115 soundfiler;
#X floatatom 69 144 20 0 0 0 - - - 0;
#X msg 104 199 bang;
#X obj 73 466 dac~;
#X obj 201 147 table wav1;
#X obj 317 147 table wav2;
#X obj 73 399 tabplay~ wav1;
#X obj 227 402 tabplay~ wav2;
#X msg 72 70 read -resize plane-crash.wav wav1 wav2;
#X connect 1 0 10 0;
#X connect 1 0 4 0;
#X connect 2 0 3 0;
#X connect 4 0 8 0;
#X connect 4 0 9 0;
#X connect 8 0 5 0;
#X connect 9 0 5 1;
#X connect 10 0 2 0;
#X restore 236 299 pd shake_patch;
#X obj 328 248 bng 15 250 50 0 empty empty empty 17 7 0 10 #fcfcfc
#000000 #000000;
#N canvas 1234 542 450 300 siren 1;
#X obj 135 25 inlet;
#X obj 130 130 osc~;
#X obj 143 190 dac~;
#X obj 130 74 expr ($f1-180)/360.0;
#X floatatom 62 138 7 0 0 0 - - - 0;
#X obj 192 29 unpack f f;
#X floatatom 188 54 5 0 0 0 - - - 0;
#X floatatom 249 57 5 0 0 0 - - - 0;
#X floatatom 66 90 5 0 0 0 - - - 0;
#X obj 142 163 *~;
#X obj 130 96 * 2000;
#X connect 0 0 3 0;
#X connect 0 0 5 0;
#X connect 1 0 9 0;
#X connect 3 0 8 0;
#X connect 3 0 10 0;
#X connect 5 0 6 0;
#X connect 5 1 7 0;
#X connect 7 0 9 1;
#X connect 9 0 2 0;
#X connect 9 0 2 1;
#X connect 10 0 1 0;
#X connect 10 0 4 0;
#X restore 992 142 pd siren;
#X obj 843 141 pack f f f;
#X connect 0 0 2 0;
#X connect 1 0 2 0;
#X connect 2 0 3 0;
#X connect 3 0 5 0;
#X connect 5 0 56 0;
#X connect 8 0 45 0;
#X connect 8 0 68 0;
#X connect 8 1 44 0;
#X connect 8 1 66 0;
#X connect 8 2 30 0;
#X connect 8 3 38 0;
#X connect 8 4 34 0;
#X connect 8 5 27 0;
#X connect 8 6 26 0;
#X connect 8 7 25 0;
#X connect 8 8 14 0;
#X connect 8 9 11 0;
#X connect 8 10 9 0;
#X connect 8 10 70 0;
#X connect 14 0 15 0;
#X connect 14 1 16 0;
#X connect 14 2 17 0;
#X connect 14 3 18 0;
#X connect 14 4 19 0;
#X connect 14 5 20 0;
#X connect 14 6 21 0;
#X connect 14 7 22 0;
#X connect 14 8 23 0;
#X connect 30 0 33 0;
#X connect 30 1 32 0;
#X connect 30 2 31 0;
#X connect 34 0 37 0;
#X connect 34 1 36 0;
#X connect 34 2 35 0;
#X connect 38 0 41 0;
#X connect 38 1 40 0;
#X connect 38 2 39 0;
#X connect 44 0 43 0;
#X connect 44 1 42 0;
#X connect 51 0 53 0;
#X connect 51 1 52 0;
#X connect 54 0 70 1;
#X connect 55 0 70 2;
#X connect 56 0 51 0;
#X connect 56 1 54 0;
#X connect 56 2 55 0;
#X connect 56 3 57 0;
#X connect 56 4 58 0;
#X connect 56 5 59 0;
#X connect 56 6 60 0;
#X connect 56 7 61 0;
#X connect 56 8 62 0;
#X connect 56 9 63 0;
#X connect 56 10 64 0;
#X connect 56 11 8 0;
#X connect 68 0 67 0;
#X connect 70 0 69 0;
